# xmcd
#
# Track frame offsets:
#	150
#	20877
#	41251
#	59821
#	83910
#	108731
#	128991
#	153734
#	174752
#	196614
#
# Disc length: 3060 seconds
#
# Revision: 1
# Processed by: cddbd v1.5.2PL0 Copyright (c) Steve Scherf et al.
# Submitted via: EasyCDDAExtractor 16.0.9.1
#
DISCID=850bf20a
DTITLE=Various Artist - PNFCD: Đà Lạt Mộng Mơ
DYEAR=2003
DGENRE=Country
TTITLE0=Hồng Ngọc - Ai Lên Xứ Hoa Đào (Hoàng Nguyên)
TTITLE1=Thanh Thảo - Đà Lạt Mộng Mơ (Từ Huy)
TTITLE2=Đàm Vĩnh Hưng - Đà Lạt Hoàng Hôn (Minh Kỳ - Dạ Cầm)
TTITLE3=Đoan Trang - Thương Về Miền Đất Lạnh (Minh Kỳ)
TTITLE4=Quách Thành Danh - Mimosa (Trần Kiết Tường)
TTITLE5=AC&M - Mặt Hồ (Trọng Thủy)
TTITLE6=Bonneur Trinh - Hoa Langbiang (Đình Nghĩ)
TTITLE7=Thanh Thúy - Khúc Hát Chiều Đà Lạt (Mạnh Đạt)
TTITLE8=Phương Thùy - Lao Xao Rừng Thông (Thế Bảo)
TTITLE9=Quang Dũng - Đà Lạt Lập Đông (Thế Hiển)
EXTD=
EXTT0=
EXTT1=
EXTT2=
EXTT3=
EXTT4=
EXTT5=
EXTT6=
EXTT7=
EXTT8=
EXTT9=
PLAYORDER=
